<svg width="11" height="11" viewBox="0 0 11 11" fill="none" xmlns="http://www.w3.org/2000/svg">
<path fill-rule="evenodd" clip-rule="evenodd" d="M5.375 0.75C2.82068 0.75 0.75 2.82068 0.75 5.375C0.75 7.92932 2.82068 10 5.375 10C7.92932 10 10 7.92932 10 5.375C10 2.82068 7.92932 0.75 5.375 0.75ZM0 5.375C0 2.40647 2.40647 0 5.375 0C8.34353 0 10.75 2.40647 10.75 5.375C10.75 8.34353 8.34353 10.75 5.375 10.75C2.40647 10.75 0 8.34353 0 5.375ZM5.375 3C5.58211 3 5.75 3.16789 5.75 3.375V5.21967L6.89016 6.35984C7.03661 6.50628 7.03661 6.74372 6.89016 6.89016C6.74372 7.03661 6.50628 7.03661 6.35984 6.89016L5.10984 5.64016C5.03951 5.56984 5 5.47446 5 5.375V3.375C5 3.16789 5.16789 3 5.375 3Z" fill="#808080"/>
</svg>
