<svg width="30" height="36" viewBox="0 0 30 36" fill="none" xmlns="http://www.w3.org/2000/svg">
<path fill-rule="evenodd" clip-rule="evenodd" d="M15.0001 0.083252C10.6278 0.083252 7.08339 3.62766 7.08339 7.99992C7.08339 12.3722 10.6278 15.9166 15.0001 15.9166C19.3723 15.9166 22.9167 12.3722 22.9167 7.99992C22.9167 3.62766 19.3723 0.083252 15.0001 0.083252ZM9.58339 7.99992C9.58339 5.00838 12.0085 2.58325 15.0001 2.58325C17.9916 2.58325 20.4167 5.00838 20.4167 7.99992C20.4167 10.9915 17.9916 13.4166 15.0001 13.4166C12.0085 13.4166 9.58339 10.9915 9.58339 7.99992Z" fill="#404040"/>
<path fill-rule="evenodd" clip-rule="evenodd" d="M15.0001 18.4166C11.1441 18.4166 7.5916 19.2931 4.95914 20.7738C2.36587 22.2325 0.416728 24.4434 0.416728 27.1666L0.416617 27.3365C0.414734 29.2729 0.412371 31.7032 2.54408 33.4392C3.5932 34.2935 5.06086 34.901 7.04374 35.3024C9.03216 35.7048 11.6238 35.9166 15.0001 35.9166C18.3764 35.9166 20.968 35.7048 22.9564 35.3024C24.9393 34.901 26.4069 34.2935 27.456 33.4392C29.5878 31.7032 29.5854 29.2729 29.5835 27.3365L29.5834 27.1666C29.5834 24.4434 27.6343 22.2325 25.041 20.7738C22.4085 19.2931 18.856 18.4166 15.0001 18.4166ZM2.91673 27.1666C2.91673 25.7477 3.95236 24.2085 6.1848 22.9528C8.37806 21.719 11.4922 20.9166 15.0001 20.9166C18.5079 20.9166 21.6221 21.719 23.8153 22.9528C26.0478 24.2085 27.0834 25.7477 27.0834 27.1666C27.0834 29.3463 27.0162 30.5733 25.8774 31.5006C25.2599 32.0035 24.2275 32.4944 22.4604 32.852C20.6988 33.2086 18.2904 33.4166 15.0001 33.4166C11.7097 33.4166 9.30129 33.2086 7.53971 32.852C5.7726 32.4944 4.74026 32.0035 4.12271 31.5006C2.98392 30.5733 2.91673 29.3463 2.91673 27.1666Z" fill="#404040"/>
</svg>
